<mxfile host="app.diagrams.net" modified="2023-03-21T08:19:51.125Z" agent="5.0 (Windows NT 10.0; Win64; x64) AppleWebKit/537.36 (KHTML, like Gecko) Chrome/111.0.0.0 Safari/537.36" etag="L89yQK-idSwSRXf2Ovle" version="21.0.6" type="github">
  <diagram name="Page-1" id="2YBvvXClWsGukQMizWep">
    <mxGraphModel dx="1900" dy="493" grid="1" gridSize="10" guides="1" tooltips="1" connect="1" arrows="1" fold="1" page="1" pageScale="1" pageWidth="850" pageHeight="1100" math="0" shadow="0">
      <root>
        <mxCell id="0" />
        <mxCell id="1" parent="0" />
        <mxCell id="aM9ryv3xv72pqoxQDRHE-1" value="MirrorImage.cc" style="shape=umlLifeline;perimeter=lifelinePerimeter;whiteSpace=wrap;html=1;container=0;dropTarget=0;collapsible=0;recursiveResize=0;outlineConnect=0;portConstraint=eastwest;newEdgeStyle={&quot;edgeStyle&quot;:&quot;elbowEdgeStyle&quot;,&quot;elbow&quot;:&quot;vertical&quot;,&quot;curved&quot;:0,&quot;rounded&quot;:0};" parent="1" vertex="1">
          <mxGeometry y="20" width="100" height="640" as="geometry" />
        </mxCell>
        <mxCell id="aM9ryv3xv72pqoxQDRHE-2" value="" style="html=1;points=[];perimeter=orthogonalPerimeter;outlineConnect=0;targetShapes=umlLifeline;portConstraint=eastwest;newEdgeStyle={&quot;edgeStyle&quot;:&quot;elbowEdgeStyle&quot;,&quot;elbow&quot;:&quot;vertical&quot;,&quot;curved&quot;:0,&quot;rounded&quot;:0};" parent="aM9ryv3xv72pqoxQDRHE-1" vertex="1">
          <mxGeometry x="45" y="223" width="10" height="230" as="geometry" />
        </mxCell>
        <mxCell id="aM9ryv3xv72pqoxQDRHE-5" value="librbd.cc" style="shape=umlLifeline;perimeter=lifelinePerimeter;whiteSpace=wrap;html=1;container=0;dropTarget=0;collapsible=0;recursiveResize=0;outlineConnect=0;portConstraint=eastwest;newEdgeStyle={&quot;edgeStyle&quot;:&quot;elbowEdgeStyle&quot;,&quot;elbow&quot;:&quot;vertical&quot;,&quot;curved&quot;:0,&quot;rounded&quot;:0};" parent="1" vertex="1">
          <mxGeometry x="270" y="30" width="100" height="750" as="geometry" />
        </mxCell>
        <mxCell id="14ulLQpkhxVHs6_y-_rS-1" value="Mirror.cc" style="shape=umlLifeline;perimeter=lifelinePerimeter;whiteSpace=wrap;html=1;container=0;dropTarget=0;collapsible=0;recursiveResize=0;outlineConnect=0;portConstraint=eastwest;newEdgeStyle={&quot;edgeStyle&quot;:&quot;elbowEdgeStyle&quot;,&quot;elbow&quot;:&quot;vertical&quot;,&quot;curved&quot;:0,&quot;rounded&quot;:0};" vertex="1" parent="1">
          <mxGeometry x="560" y="40" width="100" height="650" as="geometry" />
        </mxCell>
        <mxCell id="14ulLQpkhxVHs6_y-_rS-9" value="IoCtxImpl.cc" style="shape=umlLifeline;perimeter=lifelinePerimeter;whiteSpace=wrap;html=1;container=0;dropTarget=0;collapsible=0;recursiveResize=0;outlineConnect=0;portConstraint=eastwest;newEdgeStyle={&quot;edgeStyle&quot;:&quot;elbowEdgeStyle&quot;,&quot;elbow&quot;:&quot;vertical&quot;,&quot;curved&quot;:0,&quot;rounded&quot;:0};" vertex="1" parent="1">
          <mxGeometry x="1530" y="40" width="100" height="840" as="geometry" />
        </mxCell>
        <mxCell id="14ulLQpkhxVHs6_y-_rS-10" value="" style="html=1;points=[];perimeter=orthogonalPerimeter;outlineConnect=0;targetShapes=umlLifeline;portConstraint=eastwest;newEdgeStyle={&quot;edgeStyle&quot;:&quot;elbowEdgeStyle&quot;,&quot;elbow&quot;:&quot;vertical&quot;,&quot;curved&quot;:0,&quot;rounded&quot;:0};" vertex="1" parent="14ulLQpkhxVHs6_y-_rS-9">
          <mxGeometry x="45" y="80" width="10" height="170" as="geometry" />
        </mxCell>
        <mxCell id="14ulLQpkhxVHs6_y-_rS-11" value="cls_rbd_client.cc" style="shape=umlLifeline;perimeter=lifelinePerimeter;whiteSpace=wrap;html=1;container=0;dropTarget=0;collapsible=0;recursiveResize=0;outlineConnect=0;portConstraint=eastwest;newEdgeStyle={&quot;edgeStyle&quot;:&quot;elbowEdgeStyle&quot;,&quot;elbow&quot;:&quot;vertical&quot;,&quot;curved&quot;:0,&quot;rounded&quot;:0};" vertex="1" parent="1">
          <mxGeometry x="730" y="40" width="100" height="740" as="geometry" />
        </mxCell>
        <mxCell id="14ulLQpkhxVHs6_y-_rS-13" value="EnableRequest.hc" style="shape=umlLifeline;perimeter=lifelinePerimeter;whiteSpace=wrap;html=1;container=0;dropTarget=0;collapsible=0;recursiveResize=0;outlineConnect=0;portConstraint=eastwest;newEdgeStyle={&quot;edgeStyle&quot;:&quot;elbowEdgeStyle&quot;,&quot;elbow&quot;:&quot;vertical&quot;,&quot;curved&quot;:0,&quot;rounded&quot;:0};" vertex="1" parent="1">
          <mxGeometry x="930" y="40" width="100" height="740" as="geometry" />
        </mxCell>
        <mxCell id="14ulLQpkhxVHs6_y-_rS-15" value="librados.hpp" style="shape=umlLifeline;perimeter=lifelinePerimeter;whiteSpace=wrap;html=1;container=0;dropTarget=0;collapsible=0;recursiveResize=0;outlineConnect=0;portConstraint=eastwest;newEdgeStyle={&quot;edgeStyle&quot;:&quot;elbowEdgeStyle&quot;,&quot;elbow&quot;:&quot;vertical&quot;,&quot;curved&quot;:0,&quot;rounded&quot;:0};" vertex="1" parent="1">
          <mxGeometry x="1070" y="40" width="100" height="740" as="geometry" />
        </mxCell>
        <mxCell id="14ulLQpkhxVHs6_y-_rS-17" value="librados_cxx.cc" style="shape=umlLifeline;perimeter=lifelinePerimeter;whiteSpace=wrap;html=1;container=0;dropTarget=0;collapsible=0;recursiveResize=0;outlineConnect=0;portConstraint=eastwest;newEdgeStyle={&quot;edgeStyle&quot;:&quot;elbowEdgeStyle&quot;,&quot;elbow&quot;:&quot;vertical&quot;,&quot;curved&quot;:0,&quot;rounded&quot;:0};" vertex="1" parent="1">
          <mxGeometry x="1300" y="40" width="100" height="840" as="geometry" />
        </mxCell>
        <mxCell id="14ulLQpkhxVHs6_y-_rS-19" value="execute_enable()" style="html=1;whiteSpace=wrap;" vertex="1" parent="1">
          <mxGeometry x="-10" y="120" width="110" height="20" as="geometry" />
        </mxCell>
        <mxCell id="14ulLQpkhxVHs6_y-_rS-25" value="int execute_enable_disable()" style="html=1;whiteSpace=wrap;" vertex="1" parent="1">
          <mxGeometry x="-30" y="160" width="160" height="20" as="geometry" />
        </mxCell>
        <mxCell id="14ulLQpkhxVHs6_y-_rS-27" value="参数初始化" style="html=1;whiteSpace=wrap;" vertex="1" parent="1">
          <mxGeometry x="-5" y="200" width="110" height="20" as="geometry" />
        </mxCell>
        <mxCell id="14ulLQpkhxVHs6_y-_rS-28" value="int Image::mirror_image_enable2()" style="endArrow=classic;html=1;rounded=0;" edge="1" parent="1">
          <mxGeometry width="50" height="50" relative="1" as="geometry">
            <mxPoint x="49.5" y="243" as="sourcePoint" />
            <mxPoint x="319.5" y="243" as="targetPoint" />
            <mxPoint as="offset" />
          </mxGeometry>
        </mxCell>
        <mxCell id="14ulLQpkhxVHs6_y-_rS-30" value="int Mirror&lt;I&gt;::image_enable()" style="endArrow=classic;html=1;rounded=0;" edge="1" parent="1">
          <mxGeometry width="50" height="50" relative="1" as="geometry">
            <mxPoint x="320" y="262" as="sourcePoint" />
            <mxPoint x="609.5" y="262" as="targetPoint" />
          </mxGeometry>
        </mxCell>
        <mxCell id="14ulLQpkhxVHs6_y-_rS-31" value="int image_status_get()" style="endArrow=classic;html=1;rounded=0;" edge="1" parent="1">
          <mxGeometry width="50" height="50" relative="1" as="geometry">
            <mxPoint x="610" y="275" as="sourcePoint" />
            <mxPoint x="779.5" y="275" as="targetPoint" />
          </mxGeometry>
        </mxCell>
        <mxCell id="14ulLQpkhxVHs6_y-_rS-32" value="获取操作模式" style="html=1;whiteSpace=wrap;" vertex="1" parent="1">
          <mxGeometry x="730" y="305" width="110" height="20" as="geometry" />
        </mxCell>
        <mxCell id="14ulLQpkhxVHs6_y-_rS-33" value="mirror_mode_get_start()" style="html=1;whiteSpace=wrap;" vertex="1" parent="1">
          <mxGeometry x="710" y="335" width="140" height="20" as="geometry" />
        </mxCell>
        <mxCell id="14ulLQpkhxVHs6_y-_rS-34" value="mirror_mode_get_finish()" style="html=1;whiteSpace=wrap;" vertex="1" parent="1">
          <mxGeometry x="710" y="365" width="140" height="20" as="geometry" />
        </mxCell>
        <mxCell id="14ulLQpkhxVHs6_y-_rS-36" value="static EnableRequest *create()" style="endArrow=classic;html=1;rounded=0;" edge="1" parent="1">
          <mxGeometry width="50" height="50" relative="1" as="geometry">
            <mxPoint x="610" y="415" as="sourcePoint" />
            <mxPoint x="979.5" y="415" as="targetPoint" />
          </mxGeometry>
        </mxCell>
        <mxCell id="14ulLQpkhxVHs6_y-_rS-37" value="void EnableRequest&lt;I&gt;::send()" style="endArrow=classic;html=1;rounded=0;" edge="1" parent="1">
          <mxGeometry width="50" height="50" relative="1" as="geometry">
            <mxPoint x="610" y="455" as="sourcePoint" />
            <mxPoint x="979.5" y="455" as="targetPoint" />
          </mxGeometry>
        </mxCell>
        <mxCell id="14ulLQpkhxVHs6_y-_rS-38" value="void get_mirror_image(）" style="html=1;whiteSpace=wrap;" vertex="1" parent="1">
          <mxGeometry x="910" y="485" width="140" height="20" as="geometry" />
        </mxCell>
        <mxCell id="14ulLQpkhxVHs6_y-_rS-41" value="mirror_image_get_start()" style="endArrow=classic;html=1;rounded=0;" edge="1" parent="1">
          <mxGeometry width="50" height="50" relative="1" as="geometry">
            <mxPoint x="980" y="535" as="sourcePoint" />
            <mxPoint x="779.5" y="535" as="targetPoint" />
          </mxGeometry>
        </mxCell>
        <mxCell id="14ulLQpkhxVHs6_y-_rS-42" value="构建完成后的回调函数" style="html=1;whiteSpace=wrap;" vertex="1" parent="1">
          <mxGeometry x="910" y="550" width="140" height="20" as="geometry" />
        </mxCell>
        <mxCell id="14ulLQpkhxVHs6_y-_rS-43" value="int aio_operate()" style="endArrow=classic;html=1;rounded=0;" edge="1" parent="1" target="14ulLQpkhxVHs6_y-_rS-15">
          <mxGeometry width="50" height="50" relative="1" as="geometry">
            <mxPoint x="980" y="590" as="sourcePoint" />
            <mxPoint x="1030" y="540" as="targetPoint" />
          </mxGeometry>
        </mxCell>
        <mxCell id="14ulLQpkhxVHs6_y-_rS-44" value="int librados::IoCtx::aio_operate()" style="endArrow=classic;html=1;rounded=0;" edge="1" parent="1" target="14ulLQpkhxVHs6_y-_rS-17">
          <mxGeometry width="50" height="50" relative="1" as="geometry">
            <mxPoint x="1120" y="620" as="sourcePoint" />
            <mxPoint x="1170" y="570" as="targetPoint" />
          </mxGeometry>
        </mxCell>
      </root>
    </mxGraphModel>
  </diagram>
</mxfile>
